<?xml version="1.0" encoding="utf-8"?>
<!-- Generator: Adobe Illustrator 16.0.0, SVG Export Plug-In . SVG Version: 6.00 Build 0)  -->
<!DOCTYPE svg PUBLIC "-//W3C//DTD SVG 1.1//EN" "http://www.w3.org/Graphics/SVG/1.1/DTD/svg11.dtd">
<svg version="1.1" id="gh-button" xmlns="http://www.w3.org/2000/svg" xmlns:xlink="http://www.w3.org/1999/xlink" x="0px" y="0px"
	 width="83.333px" height="83px" viewBox="0 0 83.333 83" enable-background="new 0 0 83.333 83" xml:space="preserve">
<style>
	#bg {
		fill: #555;
	}
	#fg:hover, #bg:hover {
	  cursor:pointer;
	}

</style>
<circle id="bg" fill="#191919" cx="41.95" cy="41.757" r="39.723"/>
<g id="fg">
	<path fill="#FFFFFF" d="M49.775,46.98c-1.767,0-3.198,1.982-3.198,4.431s1.434,4.43,3.198,4.43c1.769,0,3.199-1.981,3.199-4.43
		S51.542,46.98,49.775,46.98L49.775,46.98z M60.917,35.455c0.365-0.899,0.381-6.007-1.561-10.896c0,0-4.459,0.488-11.203,5.117
		c-1.416-0.389-3.811-0.586-6.203-0.586c-2.395,0-4.785,0.195-6.201,0.586c-6.748-4.629-11.205-5.117-11.205-5.117
		c-1.941,4.889-1.924,9.998-1.561,10.896c-2.285,2.478-3.68,5.456-3.68,9.525c0,17.689,14.676,17.974,18.381,17.974
		c0.838,0,2.504,0,4.266,0.002c1.761-0.002,3.427-0.002,4.267-0.002c3.703,0,18.38-0.283,18.38-17.974
		C64.597,40.911,63.202,37.933,60.917,35.455L60.917,35.455z M42.021,60.777h-0.139c-9.285,0-16.516-1.106-16.516-10.131
		c0-2.162,0.764-4.166,2.574-5.832c3.025-2.773,8.139-1.305,13.941-1.305c0.021,0,0.045,0,0.068-0.002
		c0.025,0.002,0.049,0.002,0.07,0.002c5.803,0,10.918-1.469,13.938,1.305c1.813,1.666,2.574,3.67,2.574,5.832
		C58.536,59.67,51.304,60.777,42.021,60.777L42.021,60.777z M34.125,46.98c-1.768,0-3.197,1.982-3.197,4.431s1.43,4.43,3.197,4.43
		c1.77,0,3.201-1.981,3.201-4.43S35.894,46.98,34.125,46.98L34.125,46.98z"/>
</g>
</svg>
