<?xml version="1.0" encoding="utf-8"?>
<!-- Generator: Adobe Illustrator 16.0.0, SVG Export Plug-In . SVG Version: 6.00 Build 0)  -->
<!DOCTYPE svg PUBLIC "-//W3C//DTD SVG 1.1//EN" "http://www.w3.org/Graphics/SVG/1.1/DTD/svg11.dtd">
<svg version="1.1" id="in-button" xmlns="http://www.w3.org/2000/svg" xmlns:xlink="http://www.w3.org/1999/xlink" x="0px" y="0px"
	 width="83.333px" height="83px" viewBox="0 0 83.333 83" enable-background="new 0 0 83.333 83" xml:space="preserve">
<style>
	#bg {
		fill: #797BFD;
	}
	#fg:hover, #bg:hover {
	  cursor:pointer;
	}

</style>
<circle id="bg" fill="#191919" cx="41.95" cy="41.757" r="39.723"/>
<g id="fg">
	<circle fill="#FFFFFF" cx="27.632" cy="24.875" r="4.412"/>
	<path fill="#FFFFFF" d="M31.538,32.061h-7.814c-0.279,0-0.506,0.227-0.506,0.506v25.467c0,0.279,0.227,0.504,0.506,0.504h7.814
		c0.279,0,0.506-0.225,0.506-0.504V32.566C32.044,32.287,31.817,32.061,31.538,32.061z"/>
	<path fill="#FFFFFF" d="M62.657,38.365c-0.568-2.131-2.848-6.682-9.18-6.682c-3.801,0-6.428,1.84-7.818,3.342v-2.459
		c0-0.279-0.225-0.506-0.504-0.506h-7.816c-0.279,0-0.504,0.227-0.504,0.506v25.467c0,0.279,0.225,0.504,0.504,0.504h7.816
		c0.279,0,0.504-0.225,0.504-0.504V42.482c0.023-1.594,1.451-3.863,4.162-3.863c3.781,0,4.035,2.268,4.035,5.041v14.373
		c0,0.279,0.225,0.504,0.504,0.504h7.816c0.279,0,0.504-0.225,0.504-0.504V40.072C62.69,38.346,62.657,38.365,62.657,38.365z"/>
</g>
</svg>
