<?xml version="1.0" encoding="utf-8"?>
<!-- Generator: Adobe Illustrator 16.0.0, SVG Export Plug-In . SVG Version: 6.00 Build 0)  -->
<!DOCTYPE svg PUBLIC "-//W3C//DTD SVG 1.1//EN" "http://www.w3.org/Graphics/SVG/1.1/DTD/svg11.dtd">
<svg version="1.1" id="tw-button" xmlns="http://www.w3.org/2000/svg" xmlns:xlink="http://www.w3.org/1999/xlink" x="0px" y="0px"
	 width="83.333px" height="83px" viewBox="0 0 83.333 83" enable-background="new 0 0 83.333 83" xml:space="preserve">
<style>
	#bg {
		fill: #87D1D7;
	}
	#fg:hover, #bg:hover {
	  cursor:pointer;
	}

</style>
<circle id="bg" fill="#191919" cx="41.95" cy="41.757" r="39.723"/>
<g id="fg">
	<path fill="#FFFFFF" d="M52.874,49.361h-8.183c-5.82,0-6.75-2.475-6.75-4.768c0-1.09,0.073-2.883,0.143-5.08h13.671
		c2.044,0,5.947-0.806,5.947-4.399c0-3.592-1.8-5.948-4.213-5.948H38.252c-0.015-5.181-0.367-10.344-5.637-10.344
		c-2.181,0-3.95,0.86-4.696,2.996c-0.979,2.803-0.721,6.091-0.707,9.01c0.002,0.557,0.004,1.113,0.008,1.671
		c0.007,1.912,0.047,3.838,0.055,5.761c0.006,2.069,0.008,4.14,0.008,6.207c0,11.588,10.968,14.871,13.07,14.871
		c2.106,0,10.347,0.188,11.834,0.188c1.489,0,5.762-0.378,5.762-4.527C57.95,50.849,54.918,49.361,52.874,49.361z"/>
</g>
</svg>
